<svg xmlns="http://www.w3.org/2000/svg" xmlns:xlink="http://www.w3.org/1999/xlink" width="500" zoomAndPan="magnify" viewBox="0 0 375 374.999991" height="500" preserveAspectRatio="xMidYMid meet" version="1.0"><defs><g/><clipPath id="04a8521b96"><path d="M 56.617188 173.179688 L 152.53125 173.179688 L 152.53125 200.585938 L 56.617188 200.585938 Z M 56.617188 173.179688 " clip-rule="nonzero"/></clipPath></defs><g fill="#ffffff" fill-opacity="1"><g transform="translate(145.115738, 209.719381)"><g><path d="M 24.6875 -10.65625 L 24.6875 0 L 19.265625 0 C 10.117188 0 5.546875 -4.523438 5.546875 -13.578125 L 5.546875 -25.390625 L 1.140625 -25.390625 L 1.140625 -35.78125 L 5.546875 -35.78125 L 5.546875 -44.453125 L 18.109375 -44.453125 L 18.109375 -35.78125 L 24.625 -35.78125 L 24.625 -25.390625 L 18.109375 -25.390625 L 18.109375 -13.390625 C 18.109375 -12.410156 18.332031 -11.707031 18.78125 -11.28125 C 19.226562 -10.863281 19.984375 -10.65625 21.046875 -10.65625 Z M 24.6875 -10.65625 "/></g></g></g><g fill="#ffffff" fill-opacity="1"><g transform="translate(175.472511, 209.719381)"><g><path d="M 16.078125 -29.46875 C 17.472656 -31.507812 19.171875 -33.125 21.171875 -34.3125 C 23.171875 -35.5 25.320312 -36.09375 27.625 -36.09375 L 27.625 -22.765625 L 24.109375 -22.765625 C 21.390625 -22.765625 19.367188 -22.234375 18.046875 -21.171875 C 16.734375 -20.109375 16.078125 -18.257812 16.078125 -15.625 L 16.078125 0 L 3.578125 0 L 3.578125 -35.78125 L 16.078125 -35.78125 Z M 16.078125 -29.46875 "/></g></g></g><g fill="#ffffff" fill-opacity="1"><g transform="translate(207.487385, 209.719381)"><g><path d="M 9.890625 -39.09375 C 7.671875 -39.09375 5.890625 -39.695312 4.546875 -40.90625 C 3.210938 -42.125 2.546875 -43.644531 2.546875 -45.46875 C 2.546875 -47.34375 3.210938 -48.894531 4.546875 -50.125 C 5.890625 -51.363281 7.671875 -51.984375 9.890625 -51.984375 C 12.054688 -51.984375 13.804688 -51.363281 15.140625 -50.125 C 16.484375 -48.894531 17.15625 -47.34375 17.15625 -45.46875 C 17.15625 -43.644531 16.484375 -42.125 15.140625 -40.90625 C 13.804688 -39.695312 12.054688 -39.09375 9.890625 -39.09375 Z M 16.078125 -35.78125 L 16.078125 0 L 3.578125 0 L 3.578125 -35.78125 Z M 16.078125 -35.78125 "/></g></g></g><g fill="#ffffff" fill-opacity="1"><g transform="translate(230.637757, 209.719381)"><g><path d="M 50.328125 -36.09375 C 54.828125 -36.09375 58.363281 -34.734375 60.9375 -32.015625 C 63.507812 -29.296875 64.796875 -25.578125 64.796875 -20.859375 L 64.796875 0 L 52.296875 0 L 52.296875 -19.203125 C 52.296875 -21.109375 51.765625 -22.59375 50.703125 -23.65625 C 49.640625 -24.71875 48.195312 -25.25 46.375 -25.25 C 44.539062 -25.25 43.09375 -24.71875 42.03125 -23.65625 C 40.96875 -22.59375 40.4375 -21.109375 40.4375 -19.203125 L 40.4375 0 L 27.9375 0 L 27.9375 -19.203125 C 27.9375 -21.109375 27.414062 -22.59375 26.375 -23.65625 C 25.332031 -24.71875 23.894531 -25.25 22.0625 -25.25 C 20.195312 -25.25 18.734375 -24.71875 17.671875 -23.65625 C 16.609375 -22.59375 16.078125 -21.109375 16.078125 -19.203125 L 16.078125 0 L 3.578125 0 L 3.578125 -35.78125 L 16.078125 -35.78125 L 16.078125 -31.0625 C 17.179688 -32.59375 18.613281 -33.8125 20.375 -34.71875 C 22.144531 -35.632812 24.175781 -36.09375 26.46875 -36.09375 C 29.101562 -36.09375 31.453125 -35.519531 33.515625 -34.375 C 35.578125 -33.226562 37.203125 -31.613281 38.390625 -29.53125 C 39.671875 -31.488281 41.351562 -33.070312 43.4375 -34.28125 C 45.519531 -35.488281 47.816406 -36.09375 50.328125 -36.09375 Z M 50.328125 -36.09375 "/></g></g></g><g fill="#ffffff" fill-opacity="1"><g transform="translate(302.192171, 209.719381)"><g><path d="M 9.625 0.515625 C 7.414062 0.515625 5.640625 -0.0859375 4.296875 -1.296875 C 2.960938 -2.515625 2.296875 -4.0625 2.296875 -5.9375 C 2.296875 -7.800781 2.960938 -9.347656 4.296875 -10.578125 C 5.640625 -11.816406 7.414062 -12.4375 9.625 -12.4375 C 11.800781 -12.4375 13.554688 -11.816406 14.890625 -10.578125 C 16.234375 -9.347656 16.90625 -7.800781 16.90625 -5.9375 C 16.90625 -4.101562 16.234375 -2.566406 14.890625 -1.328125 C 13.554688 -0.0976562 11.800781 0.515625 9.625 0.515625 Z M 9.625 0.515625 "/></g></g></g><g clip-path="url(#04a8521b96)"><path fill="#ffffff" d="M 181.898438 189.265625 C 176.546875 189.265625 173.980469 186.621094 170.457031 182.980469 L 170.367188 182.894531 C 166.148438 178.558594 160.925781 173.179688 150.789062 173.179688 C 140.5625 173.179688 135.339844 178.601562 131.117188 182.980469 C 127.59375 186.621094 125.027344 189.265625 119.675781 189.265625 C 114.324219 189.265625 111.753906 186.621094 108.230469 182.980469 L 108.101562 182.851562 C 103.921875 178.558594 98.746094 173.222656 88.691406 173.222656 C 78.464844 173.222656 73.246094 178.644531 69.066406 182.980469 L 69.023438 183.023438 C 65.5 186.664062 62.933594 189.3125 57.578125 189.3125 C 52.226562 189.3125 49.660156 186.664062 46.136719 183.023438 L 46.003906 182.894531 C 41.828125 178.601562 36.605469 173.222656 26.46875 173.222656 C 16.242188 173.222656 11.019531 178.644531 6.84375 182.980469 L 6.796875 183.023438 C 3.273438 186.664062 0.707031 189.3125 -4.644531 189.3125 C -9.996094 189.3125 -12.566406 186.664062 -16.089844 183.023438 L -16.175781 182.9375 C -20.398438 178.601562 -25.621094 173.222656 -35.757812 173.222656 L -38.371094 173.222656 L -38.371094 184.496094 L -35.757812 184.496094 C -30.40625 184.496094 -27.839844 187.144531 -24.3125 190.785156 L -24.183594 190.914062 C -20.007812 195.207031 -14.785156 200.585938 -4.644531 200.585938 C 5.582031 200.585938 10.800781 195.164062 14.980469 190.828125 L 15.023438 190.785156 C 18.546875 187.144531 21.113281 184.496094 26.46875 184.496094 C 31.820312 184.496094 34.386719 187.144531 37.910156 190.785156 L 38 190.871094 C 42.21875 195.207031 47.441406 200.585938 57.578125 200.585938 C 67.804688 200.585938 73.027344 195.164062 77.203125 190.828125 L 77.25 190.785156 C 80.773438 187.144531 83.339844 184.496094 88.691406 184.496094 C 94.089844 184.496094 96.613281 187.144531 100.09375 190.785156 C 104.269531 195.121094 109.492188 200.539062 119.71875 200.539062 C 129.945312 200.539062 135.164062 195.121094 139.34375 190.785156 L 139.386719 190.742188 C 142.910156 187.097656 145.480469 184.453125 150.832031 184.453125 C 156.183594 184.453125 158.75 187.097656 162.273438 190.742188 L 162.363281 190.828125 C 166.582031 195.164062 171.804688 200.539062 181.898438 200.539062 L 184.511719 200.539062 L 184.511719 189.265625 Z M 181.898438 189.265625 " fill-opacity="1" fill-rule="nonzero"/></g></svg>